<svg width="1826" height="1788" viewBox="0 0 1826 1788" fill="none" xmlns="http://www.w3.org/2000/svg">
<ellipse cx="913" cy="878" rx="913" ry="878" fill="#0D0B3A"/>
<circle cx="913" cy="1085" r="703" fill="#1715CF"/>
<ellipse cx="913" cy="1081.5" rx="469" ry="468.5" fill="#1715CF"/>
<ellipse cx="913" cy="1083.5" rx="281" ry="281.5" fill="#0D0B3A"/>
<path d="M1152 605.651L1167.93 609.137C1209.43 618.215 1252.59 616.098 1293 603" stroke="#212B39" stroke-width="5"/>
<path d="M1156.1 744.531L1174.38 742.251C1220.82 736.458 1265.27 719.872 1304.15 693.821" stroke="#212B39" stroke-width="5"/>
<path d="M1157.82 654.717L1174.76 661.94C1217.82 680.292 1264.57 688.309 1311.28 685.349" stroke="#212B39" stroke-width="5"/>
<path d="M1209 884.518L1224.95 887.858C1266.13 896.477 1308.82 894.461 1349 882" stroke="#212B39" stroke-width="5"/>
<path d="M1212.81 1022.46L1231.09 1020.18C1277.53 1014.38 1321.98 997.797 1360.86 971.746" stroke="#212B39" stroke-width="5"/>
<path d="M1214.53 932.642L1231.47 939.865C1274.53 958.217 1321.28 966.234 1367.99 963.274" stroke="#212B39" stroke-width="5"/>
<path d="M1211.88 789.895L1228.82 797.118C1271.88 815.47 1318.63 823.487 1365.34 820.527" stroke="#212B39" stroke-width="5"/>
<path d="M1112.54 763.098L1094.26 760.818C1047.82 755.025 1003.38 738.439 964.497 712.388" stroke="#1B1C1E" stroke-width="5"/>
<path d="M1084 902.518L1067.91 905.862C1026.45 914.48 983.476 912.464 943 900" stroke="#1B1C1E" stroke-width="5"/>
<path d="M1079.46 1040.55L1061.19 1038.27C1014.74 1032.48 970.301 1015.89 931.418 989.844" stroke="#1B1C1E" stroke-width="5"/>
<path d="M1077.75 950.74L1060.8 957.963C1017.75 976.315 970.994 984.332 924.285 981.372" stroke="#1B1C1E" stroke-width="5"/>
<path d="M1080.4 807.993L1063.45 815.216C1020.4 833.568 973.646 841.585 926.937 838.625" stroke="#1B1C1E" stroke-width="5"/>
<rect x="327.192" y="464.927" width="129.823" height="619.121" fill="#144272"/>
<rect x="347.345" y="441.024" width="90.4545" height="45.9303" fill="#144272"/>
<rect x="437.799" y="550.226" width="26.2459" height="58.1159" fill="#144272"/>
<rect x="437.799" y="471.957" width="34.682" height="44.9929" fill="#144272"/>
<rect x="437.799" y="627.089" width="22.4965" height="118.575" fill="#144272"/>
<rect x="430.769" y="803.78" width="76.8629" height="191.689" fill="#144272"/>
<rect x="935.534" y="970.628" width="71.2388" height="114.357" fill="#144272"/>
<rect x="911.632" y="874.082" width="71.2388" height="114.357" fill="#144272"/>
<rect x="935.534" y="768.629" width="71.2388" height="114.357" fill="#144272"/>
<rect x="911.632" y="698.327" width="71.2388" height="114.357" fill="#144272"/>
<rect x="790.244" y="666.926" width="159.819" height="418.059" fill="#144272"/>
<rect x="1295.01" y="552.569" width="164.037" height="532.416" fill="#144272"/>
<rect x="1440.77" y="573.191" width="32.3387" height="80.1436" fill="#144272"/>
<rect x="1333.91" y="538.978" width="11.7169" height="37.9628" fill="#144272"/>
<rect x="1395.77" y="545.54" width="44.9929" height="27.6519" fill="#144272"/>
<rect x="1284.23" y="591.469" width="23.4338" height="214.185" fill="#144272"/>
<rect x="1287.98" y="854.396" width="19.6844" height="128.886" fill="#144272"/>
<rect x="650.579" y="566.161" width="113.42" height="518.825" fill="#144272"/>
<rect x="755.093" y="995.469" width="17.341" height="68.8954" fill="#144272"/>
<rect x="755.093" y="733.479" width="25.7772" height="158.413" fill="#144272"/>
<rect x="646.361" y="581.158" width="25.7772" height="158.413" fill="#144272"/>
<rect x="638.393" y="843.617" width="33.7447" height="158.413" fill="#144272"/>
<rect width="113.42" height="518.825" transform="matrix(-1 0 0 1 1169.87 566.161)" fill="#144272"/>
<rect width="17.341" height="68.8954" transform="matrix(-1 0 0 1 1065.36 995.469)" fill="#144272"/>
<rect width="25.7772" height="158.413" transform="matrix(-1 0 0 1 1065.36 733.479)" fill="#144272"/>
<rect width="25.7772" height="158.413" transform="matrix(-1 0 0 1 1174.09 581.158)" fill="#144272"/>
<rect width="33.7447" height="158.413" transform="matrix(-1 0 0 1 1182.06 843.617)" fill="#144272"/>
<rect x="327.192" y="645.836" width="160.756" height="438.212" fill="#0A2647"/>
<rect x="412.022" y="658.021" width="89.5172" height="70.3014" fill="#0A2647"/>
<rect x="407.804" y="843.617" width="89.5172" height="175.285" fill="#0A2647"/>
<rect x="367.498" y="631.307" width="89.5172" height="70.3014" fill="#0A2647"/>
<rect x="577.933" y="508.983" width="160.756" height="575.066" fill="#0A2647"/>
<rect x="662.764" y="658.021" width="89.5172" height="70.3014" fill="#0A2647"/>
<rect x="563.405" y="701.608" width="89.5172" height="257.303" fill="#0A2647"/>
<rect x="563.405" y="516.95" width="89.5172" height="128.886" fill="#0A2647"/>
<rect x="658.546" y="843.617" width="89.5172" height="175.285" fill="#0A2647"/>
<rect x="563.405" y="996.406" width="89.5172" height="175.285" fill="#0A2647"/>
<rect x="618.24" y="493.517" width="89.5172" height="92.3292" fill="#0A2647"/>
<rect x="1340" y="687.548" width="158.881" height="575.066" fill="#0A2647"/>
<rect x="1322.66" y="942.977" width="45.4616" height="133.573" fill="#0A2647"/>
<rect x="1326.41" y="700.203" width="45.4616" height="133.573" fill="#0A2647"/>
<rect x="1371.87" y="667.864" width="133.104" height="38.9001" fill="#0A2647"/>
<rect x="1079.42" y="529.604" width="67.0207" height="575.066" fill="#0A2647"/>
<rect x="1063.01" y="546.477" width="75.9256" height="70.3014" fill="#0A2647"/>
<rect x="1100.98" y="796.281" width="61.3966" height="213.716" fill="#0A2647"/>
<rect x="1063.01" y="666.458" width="61.3966" height="109.67" fill="#0A2647"/>
<rect x="1063.01" y="975.315" width="61.3966" height="109.67" fill="#0A2647"/>
<rect x="1110.35" y="508.983" width="61.3966" height="120.45" fill="#0A2647"/>
<path d="M728 900.518L705.697 903.995C650.588 912.586 594.344 910.551 540 898" stroke="#B6CEDD" stroke-width="5"/>
<path d="M723.596 1038.86L698.328 1036.51C636.088 1030.74 577.216 1014.34 524.713 988.151" stroke="#B6CEDD" stroke-width="5"/>
<path d="M721.291 949.047L697.8 956.5C640.115 974.803 578.235 982.655 515.132 979.679" stroke="#B6CEDD" stroke-width="5"/>
<path d="M724.852 806.298L701.361 813.752C643.676 832.055 581.796 839.907 518.692 836.931" stroke="#B6CEDD" stroke-width="5"/>
<path d="M1437 927.651L1414.82 931.29C1359.68 940.338 1303.29 938.198 1249 925" stroke="#B6CEDD" stroke-width="5"/>
<path d="M1432.23 1066.51L1406.97 1064.17C1344.73 1058.39 1285.85 1041.99 1233.35 1015.8" stroke="#B6CEDD" stroke-width="5"/>
<path d="M1429.93 976.699L1406.44 984.153C1348.75 1002.46 1286.87 1010.31 1223.77 1007.33" stroke="#B6CEDD" stroke-width="5"/>
<path d="M1433.49 833.951L1410 841.405C1352.31 859.708 1290.43 867.559 1227.33 864.583" stroke="#B6CEDD" stroke-width="5"/>
<rect x="794" y="1196" width="90" height="176" fill="#D9D9D9"/>
<rect x="808.523" y="708.638" width="160.756" height="575.066" fill="#0A2647"/>
<rect x="893.353" y="857.677" width="89.5172" height="70.3014" fill="#0A2647"/>
<rect x="793.994" y="901.265" width="89.5172" height="257.303" fill="#0A2647"/>
<rect x="793.994" y="716.606" width="89.5172" height="128.886" fill="#0A2647"/>
<rect x="889.135" y="1043.27" width="89.5172" height="175.285" fill="#0A2647"/>
<rect x="848.828" y="693.172" width="89.5172" height="92.3292" fill="#0A2647"/>
<path d="M1170.04 888.82L1073.82 913.324C998.258 932.567 921.031 944.545 843.19 949.096L791.438 952.122" stroke="#D3D3D3" stroke-width="5"/>
<path d="M1176.28 1034.49L1108.61 1030.74C1022.96 1026 938.036 1012.27 855.251 989.776L831.358 983.283" stroke="#D3D3D3" stroke-width="5"/>
<path d="M1193 802.518L1124.68 808.272C1039.98 815.405 954.77 813.695 870.426 803.172L845 800" stroke="#D3D3D3" stroke-width="5"/>
<path d="M1202.85 891.119L1106.41 888.769C1023.04 886.738 940.09 876.191 858.862 857.293L812.173 846.43" stroke="#D3D3D3" stroke-width="5"/>
<rect x="1405.62" y="828.519" width="93.2666" height="256.467" fill="#2C74B3"/>
<rect x="1398.59" y="1030.25" width="13.5916" height="44.0204" fill="#2C74B3"/>
<rect x="1398.59" y="908.904" width="13.5916" height="76.94" fill="#2C74B3"/>
<rect x="1428.58" y="819.715" width="73.1135" height="66.6048" fill="#2C74B3"/>
<rect x="1135.66" y="769.566" width="102.171" height="314.482" fill="#2C74B3"/>
<rect x="1227.99" y="787.376" width="22.0278" height="174.348" fill="#2C74B3"/>
<rect x="1208.3" y="992.656" width="31.4013" height="91.3919" fill="#2C74B3"/>
<rect x="1146.44" y="763.005" width="73.5822" height="14.9976" fill="#2C74B3"/>
<rect x="1127.69" y="785.502" width="24.3712" height="197.781" fill="#2C74B3"/>
<rect x="1127.69" y="1001.56" width="18.2784" height="74.9882" fill="#2C74B3"/>
<rect x="729.785" y="761.13" width="109.202" height="322.918" fill="#2C74B3"/>
<rect x="829.613" y="976.252" width="19.2157" height="93.7353" fill="#2C74B3"/>
<rect x="829.144" y="765.817" width="19.2157" height="41.7122" fill="#2C74B3"/>
<rect x="825.395" y="826.276" width="19.2157" height="121.387" fill="#2C74B3"/>
<rect x="719.943" y="765.817" width="18.747" height="126.074" fill="#2C74B3"/>
<rect x="724.63" y="912.981" width="18.747" height="126.074" fill="#2C74B3"/>
<rect x="724.63" y="1048.9" width="18.747" height="32.8073" fill="#2C74B3"/>
<rect x="738.69" y="755.506" width="66.552" height="32.8073" fill="#2C74B3"/>
<rect x="478.106" y="771.91" width="110.139" height="313.076" fill="#2C74B3"/>
<rect x="470.138" y="796.281" width="27.1832" height="108.733" fill="#2C74B3"/>
<rect x="564.342" y="972.972" width="27.1832" height="108.733" fill="#2C74B3"/>
<rect x="564.342" y="783.158" width="27.1832" height="108.733" fill="#2C74B3"/>
<rect x="464.514" y="950.944" width="27.1832" height="108.733" fill="#2C74B3"/>
<rect x="574.653" y="901.265" width="27.1832" height="57.6472" fill="#2C74B3"/>
<rect x="547.47" y="742.852" width="27.1832" height="57.6472" fill="#2C74B3"/>
</svg>
